<svg width="190" height="190" viewBox="0 0 190 190" fill="none" xmlns="http://www.w3.org/2000/svg">
<rect width="189.44" height="189.44" rx="29.6" fill="#050506"/>
<path d="M74.6403 142.426C45.3973 142.426 27.5662 132.013 27.5662 107.763V106.907H54.3842V109.903C54.3842 116.322 56.6666 118.034 74.6403 118.034C90.9023 118.034 92.6141 116.75 92.6141 112.47C92.6141 109.047 90.7596 107.62 82.9139 106.622L52.9577 102.627C35.1266 100.202 26.1397 90.645 26.1397 75.2389C26.1397 59.9755 37.9796 43.9988 72.5006 43.9988C102.885 43.9988 117.435 57.2652 117.435 78.6625V79.5184H90.617V77.3786C90.617 70.5315 87.6214 68.2491 69.6476 68.2491C55.9533 68.2491 52.9577 70.1036 52.9577 74.2404C52.9577 77.236 54.6695 78.6625 59.8048 79.3757L89.7611 83.7978C113.155 87.2214 119.432 99.2039 119.432 111.472C119.432 127.876 106.879 142.426 74.6403 142.426Z" fill="#066FD5"/>
<path d="M160.6 141H125.793V113.611H160.6V141Z" fill="#FF7229"/>
</svg>
