<svg width="42" height="41" viewBox="0 0 42 41" fill="none" xmlns="http://www.w3.org/2000/svg">
<g opacity="0.2" filter="url(#filter0_f_1057_898)">
<path d="M15.916 8H26.416C30.416 8 33.666 11.25 33.666 15.25V25.75C33.666 27.6728 32.9022 29.5169 31.5425 30.8765C30.1829 32.2362 28.3388 33 26.416 33H15.916C11.916 33 8.66602 29.75 8.66602 25.75V15.25C8.66602 13.3272 9.42985 11.4831 10.7895 10.1235C12.1491 8.76384 13.9932 8 15.916 8ZM15.666 10.5C14.4725 10.5 13.3279 10.9741 12.484 11.818C11.6401 12.6619 11.166 13.8065 11.166 15V26C11.166 28.4875 13.1785 30.5 15.666 30.5H26.666C27.8595 30.5 29.0041 30.0259 29.848 29.182C30.6919 28.3381 31.166 27.1935 31.166 26V15C31.166 12.5125 29.1535 10.5 26.666 10.5H15.666ZM27.7285 12.375C28.1429 12.375 28.5403 12.5396 28.8334 12.8326C29.1264 13.1257 29.291 13.5231 29.291 13.9375C29.291 14.3519 29.1264 14.7493 28.8334 15.0424C28.5403 15.3354 28.1429 15.5 27.7285 15.5C27.3141 15.5 26.9167 15.3354 26.6236 15.0424C26.3306 14.7493 26.166 14.3519 26.166 13.9375C26.166 13.5231 26.3306 13.1257 26.6236 12.8326C26.9167 12.5396 27.3141 12.375 27.7285 12.375ZM21.166 14.25C22.8236 14.25 24.4133 14.9085 25.5854 16.0806C26.7575 17.2527 27.416 18.8424 27.416 20.5C27.416 22.1576 26.7575 23.7473 25.5854 24.9194C24.4133 26.0915 22.8236 26.75 21.166 26.75C19.5084 26.75 17.9187 26.0915 16.7466 24.9194C15.5745 23.7473 14.916 22.1576 14.916 20.5C14.916 18.8424 15.5745 17.2527 16.7466 16.0806C17.9187 14.9085 19.5084 14.25 21.166 14.25ZM21.166 16.75C20.1714 16.75 19.2176 17.1451 18.5144 17.8483C17.8111 18.5516 17.416 19.5054 17.416 20.5C17.416 21.4946 17.8111 22.4484 18.5144 23.1517C19.2176 23.8549 20.1714 24.25 21.166 24.25C22.1606 24.25 23.1144 23.8549 23.8177 23.1517C24.5209 22.4484 24.916 21.4946 24.916 20.5C24.916 19.5054 24.5209 18.5516 23.8177 17.8483C23.1144 17.1451 22.1606 16.75 21.166 16.75Z" fill="#066FD5"/>
</g>
<path d="M15.916 8H26.416C30.416 8 33.666 11.25 33.666 15.25V25.75C33.666 27.6728 32.9022 29.5169 31.5425 30.8765C30.1829 32.2362 28.3388 33 26.416 33H15.916C11.916 33 8.66602 29.75 8.66602 25.75V15.25C8.66602 13.3272 9.42985 11.4831 10.7895 10.1235C12.1491 8.76384 13.9932 8 15.916 8ZM15.666 10.5C14.4725 10.5 13.3279 10.9741 12.484 11.818C11.6401 12.6619 11.166 13.8065 11.166 15V26C11.166 28.4875 13.1785 30.5 15.666 30.5H26.666C27.8595 30.5 29.0041 30.0259 29.848 29.182C30.6919 28.3381 31.166 27.1935 31.166 26V15C31.166 12.5125 29.1535 10.5 26.666 10.5H15.666ZM27.7285 12.375C28.1429 12.375 28.5403 12.5396 28.8334 12.8326C29.1264 13.1257 29.291 13.5231 29.291 13.9375C29.291 14.3519 29.1264 14.7493 28.8334 15.0424C28.5403 15.3354 28.1429 15.5 27.7285 15.5C27.3141 15.5 26.9167 15.3354 26.6236 15.0424C26.3306 14.7493 26.166 14.3519 26.166 13.9375C26.166 13.5231 26.3306 13.1257 26.6236 12.8326C26.9167 12.5396 27.3141 12.375 27.7285 12.375ZM21.166 14.25C22.8236 14.25 24.4133 14.9085 25.5854 16.0806C26.7575 17.2527 27.416 18.8424 27.416 20.5C27.416 22.1576 26.7575 23.7473 25.5854 24.9194C24.4133 26.0915 22.8236 26.75 21.166 26.75C19.5084 26.75 17.9187 26.0915 16.7466 24.9194C15.5745 23.7473 14.916 22.1576 14.916 20.5C14.916 18.8424 15.5745 17.2527 16.7466 16.0806C17.9187 14.9085 19.5084 14.25 21.166 14.25ZM21.166 16.75C20.1714 16.75 19.2176 17.1451 18.5144 17.8483C17.8111 18.5516 17.416 19.5054 17.416 20.5C17.416 21.4946 17.8111 22.4484 18.5144 23.1517C19.2176 23.8549 20.1714 24.25 21.166 24.25C22.1606 24.25 23.1144 23.8549 23.8177 23.1517C24.5209 22.4484 24.916 21.4946 24.916 20.5C24.916 19.5054 24.5209 18.5516 23.8177 17.8483C23.1144 17.1451 22.1606 16.75 21.166 16.75Z" fill="#F0EDE6"/>
<defs>
<filter id="filter0_f_1057_898" x="0.666016" y="0" width="41" height="41" filterUnits="userSpaceOnUse" color-interpolation-filters="sRGB">
<feFlood flood-opacity="0" result="BackgroundImageFix"/>
<feBlend mode="normal" in="SourceGraphic" in2="BackgroundImageFix" result="shape"/>
<feGaussianBlur stdDeviation="4" result="effect1_foregroundBlur_1057_898"/>
</filter>
</defs>
</svg>
