<svg width="61" height="60" viewBox="0 0 61 60" fill="none" xmlns="http://www.w3.org/2000/svg">
<circle cx="30.4871" cy="30" r="29.25" stroke="#066FD5" stroke-width="1.5"/>
<path d="M42.4862 44.5016H18.4862C17.6906 44.5016 16.9275 44.1855 16.3649 43.6229C15.8023 43.0603 15.4862 42.2972 15.4862 41.5016V25.0751C15.5111 24.5792 15.6569 24.097 15.9107 23.6704C16.1646 23.2437 16.5188 22.8856 16.9427 22.6271L28.9427 15.4271C29.4088 15.1476 29.942 15 30.4855 15C31.0289 15 31.5621 15.1476 32.0282 15.4271L44.0282 22.6271C44.9297 23.1716 45.4832 24.1466 45.4862 25.1996V41.5016C45.4862 42.2972 45.1701 43.0603 44.6075 43.6229C44.0449 44.1855 43.2819 44.5016 42.4862 44.5016ZM18.4862 26.3036V41.5016H42.4862V26.3036L30.4862 34.3031L18.4862 26.3036ZM30.4862 17.9996L20.4602 24.0146L30.4862 30.6986L40.5107 24.0146L30.4862 17.9996Z" fill="#066FD5"/>
</svg>
