<svg width="61" height="60" viewBox="0 0 61 60" fill="none" xmlns="http://www.w3.org/2000/svg">
<circle cx="30.8118" cy="30" r="29.25" stroke="#066FD5" stroke-width="1.5"/>
<path d="M24.8408 15.4943C25.9661 15.8755 27.0367 16.4024 28.0251 17.0617C29.4211 16.7049 30.8565 16.5257 32.2974 16.5282C33.7854 16.5282 35.221 16.7141 36.5666 17.0602C37.5547 16.4016 38.6247 15.8751 39.7495 15.4943C40.7939 15.1391 42.282 14.5637 43.1661 15.5422C43.7655 16.2076 43.9153 17.3225 44.0217 18.1736C44.1416 19.1237 44.1701 20.3614 43.8554 21.5902C45.0587 23.1442 45.784 24.9978 45.784 27.0178C45.784 30.0778 44.1266 32.7347 41.6736 34.5748C40.493 35.4493 39.1837 36.1348 37.7924 36.6068C38.1131 37.3411 38.2914 38.1533 38.2914 39.0059V43.5015C38.2914 43.8989 38.1335 44.2801 37.8525 44.5611C37.5715 44.8421 37.1903 45 36.7929 45H27.8018C27.4044 45 27.0232 44.8421 26.7422 44.5611C26.4612 44.2801 26.3033 43.8989 26.3033 43.5015V42.0165C24.8722 42.1918 23.6719 42.0359 22.6514 41.6029C21.5845 41.1503 20.8412 40.449 20.2823 39.7777C19.7518 39.1423 19.1734 37.7097 18.3372 37.431C18.1505 37.3688 17.9778 37.2705 17.8291 37.1415C17.6803 37.0126 17.5584 36.8557 17.4703 36.6797C17.2925 36.3242 17.2631 35.9125 17.3887 35.5354C17.5142 35.1582 17.7845 34.8464 18.14 34.6685C18.4955 34.4906 18.9071 34.4612 19.2843 34.5868C20.2823 34.9195 20.9326 35.6388 21.3777 36.2172C22.097 37.1463 22.6814 38.3601 23.8203 38.8441C24.2893 39.0434 24.9771 39.1738 26.0531 39.0269L26.3033 38.976C26.3062 38.1605 26.476 37.3542 26.8023 36.6068C25.4111 36.1348 24.1017 35.4493 22.9212 34.5748C20.4681 32.7347 18.8107 30.0793 18.8107 27.0178C18.8107 25.0008 19.5345 23.1487 20.7348 21.5962C20.4202 20.3674 20.4471 19.1267 20.567 18.1751L20.5745 18.1182C20.6839 17.246 20.8113 16.2195 21.4227 15.5422C22.3068 14.5637 23.7963 15.1406 24.8393 15.4958L24.8408 15.4943Z" fill="#066FD5"/>
</svg>
