<svg width="61" height="60" viewBox="0 0 61 60" fill="none" xmlns="http://www.w3.org/2000/svg">
<circle cx="30.1624" cy="30" r="29.25" stroke="#066FD5" stroke-width="1.5"/>
<path d="M20.3298 18.3348C20.3294 19.2188 19.9778 20.0664 19.3524 20.6912C18.727 21.316 17.879 21.6667 16.995 21.6663C16.111 21.6659 15.2634 21.3143 14.6386 20.6889C14.0138 20.0635 13.6631 19.2155 13.6635 18.3315C13.664 17.4475 14.0155 16.5999 14.6409 15.9751C15.2663 15.3503 16.1143 14.9996 16.9983 15C17.8823 15.0004 18.73 15.352 19.3547 15.9774C19.9795 16.6028 20.3303 17.4508 20.3298 18.3348ZM20.4298 27.4676C20.4298 25.6268 18.9375 24.1345 17.0967 24.1345C15.2558 24.1345 13.7635 25.6268 13.7635 27.4676V41.6668C13.7635 43.5077 15.2558 45 17.0967 45C18.9375 45 20.4298 43.5077 20.4298 41.6668V27.4676ZM30.9493 24.693C30.9566 24.3867 30.7102 24.1345 30.4039 24.1345H27.6066C25.7968 24.1345 24.3296 25.6017 24.3296 27.4115V41.7168C24.3296 43.5301 25.7995 45 27.6127 45C29.426 45 30.8959 43.5301 30.8959 41.7168V34.0506C30.8959 27.9509 38.8455 27.3843 38.8455 34.0506V41.7085C38.8455 43.5264 40.3191 45 42.1369 45C43.9548 45 45.4284 43.5264 45.4284 41.7085V31.7841C45.4284 22.8108 36.4683 21.96 32.3478 25.2446C31.9008 25.6009 30.9357 25.2645 30.9493 24.693Z" fill="#066FD5"/>
</svg>
