<svg width="63" height="72" viewBox="0 0 63 72" fill="none" xmlns="http://www.w3.org/2000/svg">
<path d="M62.5465 17.9959L62.719 17.8809C62.3741 17.2485 61.8566 16.6735 61.3391 16.3861L33.5691 0.402464C33.1091 0.11499 32.4767 0 31.7868 0C31.0968 0 30.4644 0.172485 30.0044 0.402464L2.40685 16.4435C1.42944 17.0185 0.739502 18.4559 0.739502 19.5483V51.5729C0.739502 52.2054 0.854492 52.8953 1.25696 53.5278L1.14197 53.5853C1.42944 54.0452 1.83191 54.4477 2.23437 54.6777L29.9469 70.7188C30.4069 71.0062 31.0393 71.1212 31.7293 71.1212C32.4192 71.1212 33.0516 70.9487 33.5116 70.7188L61.1092 54.6777C62.0866 54.1027 62.7765 52.6653 62.7765 51.5729V19.4908C62.834 19.0308 62.7765 18.5134 62.5465 17.9959ZM31.7868 49.6181C37.0188 49.6181 41.6184 46.7434 44.0332 42.4887L51.45 46.8584C47.5404 53.6428 40.181 58.2424 31.7868 58.2424C19.2529 58.2424 9.07627 48.0658 9.07627 35.5319C9.07627 22.998 19.2529 12.8214 31.7868 12.8214C40.2385 12.8214 47.5979 17.4785 51.5075 24.3204L44.0332 28.6325C41.6184 24.3204 37.0188 21.4456 31.7868 21.4456C24.0249 21.4456 17.7005 27.77 17.7005 35.5319C17.7005 43.2937 24.0249 49.6181 31.7868 49.6181Z" fill="#066FD5"/>
</svg>
