<svg width="63" height="72" viewBox="0 0 63 72" fill="none" xmlns="http://www.w3.org/2000/svg">
<path fill-rule="evenodd" clip-rule="evenodd" d="M62.6769 17.8809L62.5044 17.9959C62.7344 18.5134 62.7919 19.0308 62.7344 19.4908V51.5729C62.7344 52.6653 62.0445 54.1027 61.0671 54.6777L33.4695 70.7188C33.0095 70.9487 32.3771 71.1212 31.6872 71.1212C30.9972 71.1212 30.3648 71.0062 29.9048 70.7188L2.19226 54.6777C1.78979 54.4477 1.38733 54.0452 1.09985 53.5853L1.21484 53.5278C0.812377 52.8953 0.697388 52.2054 0.697388 51.5729V19.5483C0.697388 18.4559 1.38733 17.0185 2.36474 16.4435L29.9623 0.402464C30.4223 0.172485 31.0547 0 31.7446 0C32.4346 0 33.067 0.11499 33.527 0.402464L61.297 16.3861C61.8145 16.6735 62.3319 17.2485 62.6769 17.8809ZM43.9911 42.4887C41.5763 46.7434 36.9767 49.6181 31.7446 49.6181C23.9828 49.6181 17.6584 43.2937 17.6584 35.5319C17.6584 27.77 23.9828 21.4456 31.7446 21.4456C36.9767 21.4456 41.5763 24.3204 43.9911 28.6325L51.4654 24.3204C47.5557 17.4785 40.1964 12.8214 31.7446 12.8214C19.2108 12.8214 9.03415 22.998 9.03415 35.5319C9.03415 48.0658 19.2108 58.2424 31.7446 58.2424C40.1389 58.2424 47.4983 53.6428 51.4079 46.8584L43.9911 42.4887ZM51.7241 36.5763L52.2183 34.0268H54.2751V32.5532H52.4988L53.0196 29.8711H51.5638L51.0429 32.5532H48.4252L48.946 29.8711H47.4902L46.9693 32.5532H44.632V34.0268H46.6889L46.1947 36.5763H43.844V38.05H45.9142L45.38 40.7763H46.8358L47.37 38.05H49.9878L49.4536 40.7763H50.9094L51.4436 38.05H53.4871V36.5763H51.7241ZM48.1447 34.0268H50.7625L50.2683 36.5763H47.6505L48.1447 34.0268Z" fill="#066FD5"/>
</svg>
