<svg width="50" height="72" viewBox="0 0 50 72" fill="none" xmlns="http://www.w3.org/2000/svg">
<path fill-rule="evenodd" clip-rule="evenodd" d="M27.9418 46.1376C30.2879 48.0194 33.1938 49.0668 36.2011 49.1145C39.2083 49.1621 42.1459 48.2075 44.5506 46.4009C46.9553 44.5944 48.6902 42.0389 49.4818 39.1373C50.2735 36.2357 50.0767 33.1531 48.9226 30.3757C47.9576 28.0431 46.36 26.0267 44.3099 24.5539C46.0587 23.3004 47.4834 21.648 48.4658 19.7337C49.4483 17.8195 49.9601 15.6986 49.959 13.547C49.959 9.95409 48.5317 6.50837 45.9912 3.96782C43.4506 1.42727 40.0049 5.6555e-07 36.412 5.6555e-07H14.3982C11.5301 -0.000827923 8.73579 0.908619 6.41763 2.59737C4.09946 4.28612 2.37708 6.66703 1.49853 9.39721C0.619974 12.1274 0.630583 15.066 1.52883 17.7897C2.42707 20.5135 4.16661 22.8819 6.4969 24.5539C4.74883 25.8081 3.32462 27.4607 2.34217 29.3747C1.35972 31.2888 0.84729 33.4093 0.84729 35.5608C0.84729 37.7123 1.35972 39.8328 2.34217 41.7469C3.32462 43.6609 4.74883 45.3135 6.4969 46.5677C4.61095 47.921 3.10437 49.7362 2.12167 51.8392C1.13898 53.9422 0.713136 56.2624 0.884997 58.5772C1.05686 60.8921 1.82066 63.124 3.10313 65.0588C4.3856 66.9936 6.14371 68.5664 8.20883 69.6264C10.2739 70.6863 12.5768 71.1979 14.8964 71.1119C17.2161 71.026 19.4748 70.3454 21.4558 69.1355C23.4368 67.9256 25.0737 66.227 26.2094 64.2026C27.3452 62.1782 27.9417 59.8959 27.9418 57.5746V46.1376ZM14.3948 5.08011C12.1492 5.08011 9.99566 5.97216 8.40781 7.56C6.81997 9.14784 5.92793 11.3014 5.92793 13.547C5.92793 15.7925 6.81997 17.9461 8.40781 19.5339C9.99566 21.1218 12.1492 22.0138 14.3948 22.0138H22.8616V5.08011H14.3948ZM22.8616 49.1078H14.3948C12.7202 49.1078 11.0832 49.6043 9.69085 50.5347C8.29849 51.465 7.21327 52.7874 6.57243 54.3345C5.93159 55.8816 5.76392 57.584 6.09062 59.2264C6.41731 60.8688 7.2237 62.3775 8.40781 63.5616C9.59193 64.7457 11.1006 65.5521 12.743 65.8788C14.3854 66.2055 16.0878 66.0378 17.6349 65.397C19.182 64.7561 20.5044 63.6709 21.4347 62.2786C22.3651 60.8862 22.8616 59.2492 22.8616 57.5746V49.1078ZM14.3948 27.0939C12.1492 27.0939 9.99566 27.986 8.40781 29.5738C6.81997 31.1617 5.92793 33.3152 5.92793 35.5608C5.92793 37.8063 6.81997 39.9599 8.40781 41.5478C9.99566 43.1356 12.1492 44.0276 14.3948 44.0276H22.8616V27.0939H14.3948ZM27.9418 35.5608C27.9418 37.8068 28.834 39.9608 30.4221 41.549C32.0103 43.1371 34.1643 44.0293 36.4103 44.0293C38.6563 44.0293 40.8103 43.1371 42.3985 41.549C43.9866 39.9608 44.8789 37.8068 44.8789 35.5608C44.8789 33.3148 43.9866 31.1608 42.3985 29.5726C40.8103 27.9845 38.6563 27.0922 36.4103 27.0922C34.1643 27.0922 32.0103 27.9845 30.4221 29.5726C28.834 31.1608 27.9418 33.3148 27.9418 35.5608ZM36.4086 22.0138C38.6542 22.0138 40.8077 21.1218 42.3956 19.5339C43.9834 17.9461 44.8755 15.7925 44.8755 13.547C44.8755 11.3014 43.9834 9.14784 42.3956 7.56C40.8077 5.97216 38.6542 5.08011 36.4086 5.08011H27.9418V22.0138H36.4086Z" fill="#066FD5"/>
</svg>
