<svg width="72" height="72" viewBox="0 0 72 72" fill="none" xmlns="http://www.w3.org/2000/svg">
<path fill-rule="evenodd" clip-rule="evenodd" d="M71.9756 0H0.85437V71.1212H71.9756V0ZM38.7857 37.9313C38.7857 35.4163 39.7848 33.0043 41.5631 31.2259C43.3415 29.4476 45.7535 28.4485 48.2685 28.4485H53.8017C58.6001 28.4485 62.4928 32.3364 62.4928 37.1395V37.9313H57.7513V37.1395C57.7513 36.6208 57.6492 36.1072 57.4507 35.6281C57.2522 35.1489 56.9613 34.7135 56.5945 34.3467C56.2278 33.98 55.7924 33.689 55.3132 33.4905C54.834 33.2921 54.3204 33.1899 53.8017 33.1899H48.2685C47.011 33.1899 45.805 33.6894 44.9158 34.5786C44.0266 35.4678 43.5271 36.6738 43.5271 37.9313C43.5271 39.1888 44.0266 40.3948 44.9158 41.284C45.805 42.1732 47.011 42.6727 48.2685 42.6727H53.0099C55.5249 42.6727 57.9369 43.6718 59.7153 45.4502C61.4937 47.2286 62.4928 49.6406 62.4928 52.1556C62.4928 54.6706 61.4937 57.0826 59.7153 58.8609C57.9369 60.6393 55.5249 61.6384 53.0099 61.6384H48.2685C45.7535 61.6384 43.3415 60.6393 41.5631 58.8609C39.7848 57.0826 38.7857 54.6706 38.7857 52.1556H43.5271C43.5271 53.4131 44.0266 54.6191 44.9158 55.5082C45.805 56.3974 47.011 56.897 48.2685 56.897H53.0099C54.2674 56.897 55.4734 56.3974 56.3626 55.5082C57.2518 54.6191 57.7513 53.4131 57.7513 52.1556C57.7513 50.8981 57.2518 49.6921 56.3626 48.8029C55.4734 47.9137 54.2674 47.4141 53.0099 47.4141H48.2685C45.7535 47.4141 43.3415 46.4151 41.5631 44.6367C39.7848 42.8583 38.7857 40.4463 38.7857 37.9313ZM29.3029 28.4485V52.1556C29.3029 53.4131 28.8033 54.6191 27.9141 55.5082C27.0249 56.3974 25.8189 56.897 24.5614 56.897C23.3039 56.897 22.0979 56.3974 21.2088 55.5082C20.3196 54.6191 19.82 53.4131 19.82 52.1556H15.0786C15.0786 54.6706 16.0777 57.0826 17.8561 58.8609C19.6344 60.6393 22.0464 61.6384 24.5614 61.6384C27.0764 61.6384 29.4884 60.6393 31.2668 58.8609C33.0452 57.0826 34.0443 54.6706 34.0443 52.1556V28.4485H29.3029Z" fill="#066FD5"/>
</svg>
