<svg width="106" height="72" viewBox="0 0 106 72" fill="none" xmlns="http://www.w3.org/2000/svg">
<path d="M72.5522 7.20044C72.0503 7.20044 71.7099 7.26154 71.3564 7.34446V7.40119H71.4175C71.6532 7.85506 72.0547 8.18673 72.3514 8.59259C72.5871 9.05955 72.7878 9.5265 73.0235 9.98909L73.0846 9.92363C73.4948 9.6356 73.6956 9.17301 73.6956 8.47039C73.521 8.26528 73.4948 8.06017 73.3464 7.85942C73.1719 7.56703 72.7966 7.42301 72.5609 7.19172L72.5522 7.20044ZM26.1401 64.7802H22.0946C21.98 58.351 21.5869 51.9297 20.9163 45.5346H20.8814L14.728 64.7802H11.6514L5.54164 45.5346H5.498C5.02039 51.9397 4.7366 58.3579 4.647 64.7802H0.959351C1.20083 56.1975 1.79726 48.153 2.74863 40.6468H7.76732L13.5934 58.3824H13.6283L19.5067 40.6468H24.2854C25.3415 49.4448 25.9641 57.4893 26.1532 64.7802H26.1401ZM43.6707 46.9747C42.021 55.9036 39.8506 62.3916 37.1594 66.4385C35.056 69.5632 32.7532 71.1241 30.2511 71.1212C29.5878 71.1212 28.7644 70.9205 27.781 70.519V68.3631C28.264 68.4388 28.8255 68.4766 29.4656 68.4766C30.6351 68.4766 31.5763 68.1536 32.2891 67.5077C33.1474 66.7222 33.5765 65.8421 33.5765 64.8675C33.5765 64.1896 33.2419 62.8163 32.5728 60.7478L28.1476 46.9747H32.1189L35.2916 57.274C36.0102 59.6131 36.3084 61.2467 36.1862 62.1748C37.9319 57.5256 39.1466 52.4589 39.8303 46.9747H43.6707ZM97.458 64.7802H85.9805V40.6468H89.8427V61.8126H97.458V64.7802ZM82.9692 65.3693L78.5353 63.1873C78.931 62.8585 79.302 62.4949 79.6482 62.0963C81.5364 59.8851 82.479 56.6077 82.4761 52.264C82.4761 44.2777 79.3412 40.2831 73.0715 40.2802C69.9992 40.2802 67.5989 41.2941 65.8708 43.322C63.9913 45.5389 63.0516 48.8047 63.0516 53.1194C63.0487 57.3642 63.8836 60.4772 65.5565 62.4585C67.0811 64.2478 69.3839 65.1424 72.4649 65.1424C73.617 65.1424 74.6717 64.9998 75.6289 64.7147L81.4113 68.0838L82.9823 65.3693H82.9692ZM68.6027 59.9491C67.6222 58.3752 67.132 55.8498 67.132 52.3731C67.132 46.2925 68.9794 43.2522 72.6744 43.2522C74.612 43.2522 76.0333 43.9795 76.9381 45.4342C77.9156 47.014 78.4044 49.5204 78.4044 52.9535C78.4044 59.0836 76.557 62.1501 72.862 62.153C70.9215 62.153 69.4988 61.4257 68.5939 59.971L68.6027 59.9491ZM61.367 58.0944C61.367 60.1484 60.6164 61.8301 59.1152 63.1393C57.6197 64.4485 55.6064 65.1031 53.0753 65.1031C50.7056 65.1031 48.4319 64.3525 46.2106 62.8556L47.2448 60.7783C49.1534 61.7355 50.8845 62.2127 52.4381 62.2097C53.887 62.2097 55.026 61.8897 55.8552 61.2496C56.2707 60.9382 56.6061 60.5324 56.8337 60.0657C57.0614 59.599 57.1747 59.0849 57.1644 58.5657C57.1644 57.1256 56.1607 55.9036 54.3365 54.8781C52.6432 53.9485 49.2611 52.0109 49.2611 52.0109C47.4194 50.6711 46.5029 49.2353 46.5029 46.8743C46.5029 44.9134 47.1867 43.3351 48.5541 42.1393C49.9244 40.929 51.6991 40.3253 53.8783 40.3282C56.1156 40.3282 58.1521 40.9246 59.988 42.1175L59.0584 44.1948C57.5948 43.5484 56.0149 43.2069 54.415 43.1911C53.1785 43.1911 52.2272 43.4907 51.5609 44.0901C51.2254 44.3699 50.9549 44.7194 50.768 45.1143C50.5811 45.5092 50.4823 45.94 50.4786 46.3768C50.4786 47.8083 51.4998 49.0389 53.3851 50.0863C55.1002 51.0246 58.5653 53.0103 58.5653 53.0103C60.4549 54.3413 61.3932 55.7596 61.3932 58.1075L61.367 58.0944ZM102.311 32.5558C99.9761 32.4947 98.165 32.7303 96.6507 33.3762C96.2142 33.5508 95.516 33.5508 95.4549 34.105C95.6949 34.3363 95.7298 34.716 95.935 35.0389C96.2841 35.6237 96.8863 36.4049 97.4449 36.8151C98.0501 37.301 98.6712 37.752 99.3084 38.168C100.443 38.8662 101.73 39.2808 102.843 39.9835C103.476 40.3937 104.122 40.913 104.763 41.3494C105.082 41.5676 105.287 41.9604 105.697 42.1V42.0128C105.497 41.7509 105.436 41.3712 105.239 41.0788C104.947 40.7864 104.654 40.5246 104.366 40.2366C103.511 39.1064 102.488 38.1131 101.333 37.2908C100.399 36.6537 98.357 35.7634 97.973 34.6942L97.9162 34.6331C98.5534 34.5764 99.3128 34.3451 99.9237 34.1705C100.914 33.9086 101.822 33.9654 102.848 33.7079C103.313 33.5857 103.779 33.449 104.244 33.2977V33.0358C103.72 32.5121 103.328 31.8008 102.787 31.312C101.275 29.9935 99.664 28.7928 97.9686 27.7204C97.0522 27.1356 95.8913 26.7603 94.9268 26.2628C94.5777 26.0882 93.9929 26.0009 93.7922 25.7085C93.2685 25.0714 92.963 24.2247 92.5921 23.4654C91.7362 21.8025 90.94 20.1096 90.2049 18.39C89.6812 17.2466 89.3626 16.1075 88.7211 15.0602C85.7099 10.0982 82.4499 7.09134 77.4356 4.14995C76.3577 3.53898 75.0659 3.27713 73.6999 2.95419C72.9711 2.91928 72.2423 2.86691 71.5179 2.83636C71.0378 2.63125 70.5752 2.07701 70.165 1.8108C68.5067 0.763417 64.2124 -1.50591 62.9905 1.49658C62.2049 3.3906 64.1557 5.25843 64.8321 6.21852C65.334 6.88623 65.9668 7.64994 66.3159 8.40057C66.521 8.9068 66.5777 9.42613 66.7829 9.95418C67.2454 11.2372 67.6862 12.6686 68.2972 13.8688C68.6158 14.4797 68.9649 15.1213 69.3751 15.6711C69.6108 15.9897 70.0123 16.1381 70.1039 16.6618C69.6937 17.2553 69.6675 18.1194 69.4319 18.8438C68.3845 22.1474 68.7947 26.2322 70.2785 28.663C70.7454 29.3875 71.8583 30.9934 73.3464 30.3781C74.6557 29.8544 74.3676 28.1961 74.7429 26.7341C74.8302 26.385 74.7735 26.1537 74.9524 25.918V25.9835C75.3626 26.8039 75.7729 27.5851 76.1482 28.4055C77.0472 29.837 78.6183 31.3207 79.9318 32.3114C80.6301 32.8351 81.1843 33.7428 82.0572 34.0658V33.9785H81.9917C81.804 33.7254 81.5553 33.6032 81.3196 33.398C80.767 32.8557 80.2564 32.2722 79.7922 31.6524C78.5664 29.9698 77.4763 28.1924 76.5322 26.337C76.0522 25.4205 75.6507 24.4342 75.2666 23.5309C75.0921 23.1817 75.0921 22.658 74.7997 22.4835C74.3633 23.1206 73.7218 23.6749 73.4032 24.4604C72.8489 25.7173 72.7922 27.2621 72.5827 28.8681C72.4649 28.8987 72.5216 28.8681 72.4649 28.9292C71.531 28.7023 71.2124 27.7335 70.8633 26.9217C69.9905 24.8488 69.8464 21.519 70.6014 19.1319C70.8065 18.5209 71.6794 16.592 71.3302 16.0072C71.1469 15.4529 70.5709 15.1344 70.2523 14.6849C69.843 14.0995 69.4922 13.4753 69.2049 12.8214C68.5067 11.1892 68.1575 9.38249 67.3982 7.75032C67.0491 6.99533 66.4381 6.20543 65.9406 5.51154C65.3864 4.72601 64.7754 4.17177 64.3346 3.24222C64.1906 2.92364 63.9855 2.39559 64.2168 2.04646C64.2779 1.8108 64.4001 1.71915 64.627 1.65369C65.011 1.33948 66.089 1.7497 66.4686 1.92426C67.5466 2.36067 68.4543 2.7709 69.3577 3.38187C69.7679 3.6699 70.2087 4.22414 70.7324 4.36815H71.3433C72.2772 4.57327 73.329 4.42925 74.2018 4.68673C75.7511 5.18424 77.1476 5.90868 78.4001 6.69421C82.2598 9.15906 85.3989 12.6009 87.4992 16.6705C87.8483 17.3426 88.001 17.9579 88.3196 18.6562C88.9306 20.0963 89.6856 21.5496 90.3053 22.9417C90.9162 24.3164 91.5054 25.7173 92.3826 26.8563C92.819 27.4673 94.5734 27.7858 95.3589 28.1044C95.9393 28.3663 96.8427 28.6063 97.3664 28.9249C98.3701 29.5358 99.3477 30.2341 100.29 30.9062C100.77 31.2378 102.224 31.9666 102.311 32.5558Z" fill="#066FD5"/>
</svg>
