<svg width="80" height="72" viewBox="0 0 80 72" fill="none" xmlns="http://www.w3.org/2000/svg">
<path d="M49.1287 51.537C47.1121 54.4045 44.9145 57.1405 42.5494 59.7281C48.85 65.8404 54.7062 68.7026 57.9563 66.8234C61.2064 64.9479 61.6546 58.4439 59.5117 49.9364C56.2993 50.652 52.8119 51.198 49.1287 51.537ZM44.1952 51.8609C41.3405 51.9791 38.4821 51.9791 35.6274 51.8609C37.0435 53.7138 38.4821 55.4311 39.9094 56.994C41.3405 55.4311 42.7754 53.7175 44.1952 51.8609ZM63.1761 22.1279C73.2126 25.0052 79.7693 29.7881 79.7693 35.5614C79.7693 41.3348 73.2164 46.1176 63.1798 48.9949C65.7031 59.1256 64.8369 67.1925 59.8393 70.0772C54.8418 72.9658 47.4227 69.6818 39.9094 62.4284C32.3999 69.678 24.9808 72.9658 19.9833 70.0772C14.982 67.1925 14.1195 59.1256 16.6428 48.9949C6.60627 46.1176 0.0533447 41.3348 0.0533447 35.5614C0.0533447 29.7881 6.60627 25.0052 16.6428 22.1279C14.1195 11.9973 14.9857 3.93039 19.9833 1.04183C24.9808 -1.84297 32.3999 1.44103 39.9094 8.69444C47.4227 1.44103 54.8418 -1.84297 59.8393 1.04183C64.8369 3.93039 65.7031 11.9973 63.1798 22.1279M59.5155 21.1939C61.6621 12.6827 61.2102 6.18248 57.9601 4.30322C54.71 2.42773 48.8538 5.28993 42.557 11.4022C44.9204 13.9903 47.1166 16.7262 49.1325 19.5934C52.8157 19.9323 56.303 20.4746 59.5155 21.1939ZM20.3109 49.9289C18.168 58.4402 18.6162 64.9404 21.8701 66.8159C25.1202 68.6913 30.9764 65.8329 37.2732 59.7206C34.9091 57.1317 32.7128 54.3945 30.6977 51.5257C27.2062 51.2135 23.7381 50.6789 20.3147 49.9251M35.635 19.262C38.4897 19.1438 41.348 19.1438 44.2027 19.262C42.8461 17.4936 41.4137 15.7848 39.9094 14.1401C38.4783 15.7068 37.0472 17.4241 35.6274 19.277M30.6939 19.6047C32.7092 16.7371 34.9055 14.0012 37.2694 11.4135C30.9726 5.29746 25.1164 2.43526 21.8701 4.31076C18.62 6.19001 18.168 12.694 20.3147 21.2015C23.5271 20.4859 27.0145 19.9436 30.6977 19.6009M47.0423 47.9216C49.7244 43.9875 52.1087 39.8585 54.1752 35.569C52.11 31.2795 49.727 27.1504 47.0461 23.2163C42.2987 22.861 37.5314 22.861 32.7841 23.2163C30.1006 27.1502 27.7151 31.2793 25.6474 35.569C27.7142 39.8583 30.0984 43.9874 32.7803 47.9216C37.5277 48.2765 42.2949 48.2765 47.0423 47.9216ZM51.8817 47.4245C54.1978 47.1232 56.401 46.739 58.4723 46.2834C57.795 44.1584 57.026 42.0638 56.1674 40.0054C54.8429 42.5363 53.4143 45.0114 51.8855 47.4245M27.9447 23.7097C25.6286 24.011 23.4254 24.3989 21.3541 24.8545C21.9943 26.8731 22.7664 28.9746 23.6627 31.1325C24.9872 28.6015 26.4157 26.1264 27.9447 23.7134M21.3541 46.2871C23.4254 46.7428 25.6286 47.127 27.9447 47.4282C26.4158 45.0152 24.9872 42.5401 23.6627 40.0091C22.8029 42.0675 22.0326 44.1621 21.3541 46.2871ZM17.6709 45.3644C18.6576 42.2236 19.9305 38.932 21.4746 35.5727C19.9998 32.393 18.7293 29.1225 17.6709 25.781C9.2312 28.1762 3.82316 31.8217 3.82316 35.5727C3.82316 39.3237 9.2312 42.9655 17.6709 45.3644ZM58.476 24.8545C56.2968 24.3778 54.0978 23.9958 51.8855 23.7097C53.4143 26.1227 54.8429 28.5978 56.1674 31.1288C57.0638 28.9746 57.832 26.8731 58.476 24.8545ZM62.1555 25.7772C61.1763 28.9181 59.8958 32.2096 58.3518 35.569C59.8958 38.9283 61.1763 42.2198 62.1555 45.3607C70.5989 42.9617 76.007 39.3199 76.007 35.569C76.007 31.818 70.5989 28.1762 62.1555 25.7772ZM39.9094 42.6454C38.9607 42.6763 38.0155 42.5162 37.1299 42.1745C36.2443 41.8328 35.4365 41.3165 34.7544 40.6564C34.0723 39.9962 33.53 39.2056 33.1596 38.3317C32.7892 37.4577 32.5984 36.5182 32.5984 35.569C32.5984 34.6197 32.7892 33.6802 33.1596 32.8062C33.53 31.9323 34.0723 31.1417 34.7544 30.4815C35.4365 29.8214 36.2443 29.3051 37.1299 28.9634C38.0155 28.6217 38.9607 28.4616 39.9094 28.4925C41.7462 28.5525 43.4878 29.3243 44.7659 30.6448C46.0441 31.9654 46.7587 33.7312 46.7587 35.569C46.7587 37.4067 46.0441 39.1725 44.7659 40.4931C43.4878 41.8136 41.7462 42.5854 39.9094 42.6454Z" fill="#066FD5"/>
</svg>
